<?xml version="1.0" encoding="utf-8"?>
<!-- Generator: Adobe Illustrator 21.1.0, SVG Export Plug-In . SVG Version: 6.00 Build 0)  -->
<svg version="1.1" id="Ebene_1" xmlns="http://www.w3.org/2000/svg" xmlns:xlink="http://www.w3.org/1999/xlink" x="0px" y="0px"
	 viewBox="0 0 249 41" style="enable-background:new 0 0 249 41;" xml:space="preserve">
<path id="Fill-1" d="M237.1,16.2h-18.7V9h18.7c2.6,0,3.9,1,3.9,3.6S239.7,16.2,237.1,16.2z M237.1,31.4h-18.7v-7.2h18.7
	c2.6,0,3.9,1,3.9,3.6S239.7,31.4,237.1,31.4z M242.7,0.3h-33.1v39.7h33.1c3.8,0,6.3-2.5,6.3-6.4v-27C249,2.8,246.5,0.3,242.7,0.3
	L242.7,0.3z"/>
<polyline id="Fill-2" points="1,40.1 1,24.9 3.5,24.9 9.6,34.2 15.7,24.9 18.2,24.9 18.2,40.1 16.1,40.1 16.1,27.5 10.3,36.2 
	8.8,36.2 3,27.5 3,40.1 1,40.1 "/>
<path id="Fill-3" d="M24.9,34.4h7.8l-3.9-7.9L24.9,34.4z M20.1,40.1L20.1,40.1l7.4-15.1h2.8l7.4,15v0.1h-2.2l-1.9-3.9h-9.4l-1.9,3.9
	H20.1L20.1,40.1z"/>
<path id="Fill-4" d="M42.3,40.1c-2.1,0-3-1-3-2.9v-1.6h2v1.6c0,0.6,0.3,1,1,1h7.8c0.7,0,1-0.4,1-1v-2.9c0-0.6-0.3-1-1-1h-7.6
	c-2.1,0-3.1-1-3.1-2.9v-2.6c0-1.8,1-2.9,3.1-2.9h7.5c2.1,0,3,1,3,2.9v1.1h-2v-1.1c0-0.6-0.3-1-1-1h-7.5c-0.7,0-1,0.4-1,1v2.6
	c0,0.6,0.3,1,1,1h7.6c2.1,0,3.1,1,3.1,2.9v2.9c0,1.8-1,2.9-3.1,2.9H42.3"/>
<path id="Fill-5" d="M59.2,40.1c-2.1,0-3.1-1-3.1-2.9v-9.4c0-1.8,1-2.9,3.1-2.9h7.6c2.1,0,3,1,3,2.9v1.6h-2v-1.6c0-0.6-0.3-1-1-1
	h-7.6c-0.7,0-1,0.4-1,1v9.4c0,0.6,0.3,1,1,1h7.6c0.7,0,1-0.4,1-1v-1.6h2v1.6c0,1.8-0.9,2.9-3,2.9H59.2"/>
<polyline id="Fill-6" points="72.7,40.1 72.7,24.9 74.8,24.9 74.8,31.6 85.4,31.6 85.4,24.9 87.4,24.9 87.4,40.1 85.4,40.1 
	85.4,33.3 74.8,33.3 74.8,40.1 72.7,40.1 "/>
<polygon id="Fill-7" points="90.9,40.1 92.9,40.1 92.9,24.9 90.9,24.9 "/>
<polyline id="Fill-8" points="96.4,40.1 96.4,24.9 98.9,24.9 109,37.5 109,24.9 111.1,24.9 111.1,40.1 108.8,40.1 98.4,27.3 
	98.4,40.1 96.4,40.1 "/>
<polyline id="Fill-9" points="114.1,40.1 114.1,24.9 126.9,24.9 126.9,26.8 116.2,26.8 116.2,31.6 125.9,31.6 125.9,33.3 
	116.2,33.3 116.2,38.2 126.9,38.2 126.9,40.1 114.1,40.1 "/>
<polyline id="Fill-10" points="129.7,40.1 129.7,24.9 132.2,24.9 142.4,37.5 142.4,24.9 144.5,24.9 144.5,40.1 142.1,40.1 
	131.8,27.3 131.8,40.1 129.7,40.1 "/>
<path id="Fill-11" d="M149.8,33.3v5h8.9c0.7,0,1-0.4,1-1v-3c0-0.6-0.3-1-0.9-1H149.8z M149.8,26.8v4.8h8.6c0.7,0,1-0.3,1-1v-2.8
	c0-0.6-0.3-1-1-1H149.8z M147.7,40.1V24.9h10.6c2.1,0,3.1,1,3.1,2.9v2.5c0,0.8-0.4,1.6-1.1,2c1,0.3,1.5,1,1.5,1.9v3
	c0,1.8-1,2.9-3.1,2.9H147.7L147.7,40.1z"/>
<path id="Fill-12" d="M167.9,34.4h7.8l-3.9-7.9L167.9,34.4z M163.1,40.1L163.1,40.1l7.4-15.1h2.8l7.4,15v0.1h-2.2l-1.9-3.9h-9.4
	l-1.9,3.9H163.1L163.1,40.1z"/>
<path id="Fill-13" d="M185.2,40.1c-2.1,0-3.1-1-3.1-2.9V24.9h2.1v12.3c0,0.6,0.3,1,1,1h8c0.7,0,1-0.4,1-1V24.9h2.1v12.3
	c0,1.8-1,2.9-3.1,2.9H185.2"/>
<path id="Fill-14" d="M5.6,9.8v2.9h7.3c0.6,0,0.8-0.3,0.8-0.8v-1.3c0-0.5-0.2-0.8-0.8-0.8H5.6z M5.6,3.8v2.9h6.9
	c0.6,0,0.8-0.3,0.8-0.8V4.6c0-0.5-0.2-0.8-0.8-0.8H5.6z M0.9,16.1V0.4h13.9c1.9,0,3.1,1.2,3.1,3.1v2.2c0,1.6-0.7,2.4-1.6,2.7
	c1.1,0.3,2,1,2,2.9v1.9c0,1.9-1.1,3.1-3,3.1H0.9L0.9,16.1z"/>
<path id="Fill-15" d="M25.8,3.8v3.6h7c0.6,0,0.8-0.3,0.8-0.8v-2c0-0.5-0.2-0.8-0.8-0.8H25.8z M21.1,16.1V0.4h14
	c1.9,0,3.1,1.2,3.1,3.1V6c0,1.7-0.7,2.6-1.7,2.9c0.9,0.3,1.7,1.1,1.7,2.8v4.5l-4.7,0v-4.6c0-0.5-0.2-0.7-0.7-0.7h-7v5.4H21.1
	L21.1,16.1z"/>
<path id="Fill-16" d="M53.2,3.6h4.7V0.4h-4.7V3.6z M44.2,16.1c-1.9,0-3.1-1.3-3.1-3.2V5.6h4.7v6.2c0,0.6,0.2,0.9,0.9,0.9h5.8
	c0.7,0,0.9-0.3,0.9-0.9V5.6h4.7V13c0,1.9-1.2,3.2-3.1,3.2H44.2z M41,3.6h4.7V0.4H41V3.6z"/>
<path id="Fill-17" d="M64.1,16.1c-1.9,0-3.1-1.3-3.1-3.2V3.5c0-1.9,1.2-3.2,3.1-3.2h10.4c1.9,0,3.1,1.3,3.1,3.2v2.4h-4.4V4.6
	c0-0.5-0.2-0.8-0.8-0.8h-6c-0.6,0-0.8,0.3-0.8,0.7v7.3c0,0.5,0.2,0.8,0.8,0.8h6c0.6,0,0.8-0.3,0.8-0.8v-1.3h4.4V13
	c0,1.9-1.2,3.2-3.1,3.2H64.1"/>
<polyline id="Fill-18" points="80.6,16.1 80.6,0.4 85.2,0.4 85.2,7.5 92.5,0.4 98,0.4 98,0.5 90.1,8.2 98.2,16 98.2,16.1 92.4,16.1 
	85.2,9 85.2,16.1 80.6,16.1 "/>
<polyline id="Fill-19" points="100.3,16.1 100.3,0.4 105.5,0.4 113.6,10.5 113.6,0.4 118.3,0.4 118.3,16.1 113.2,16.1 105,6 
	105,16.1 100.3,16.1 "/>
<polyline id="Fill-20" points="121.5,16.1 121.5,0.4 137.5,0.4 137.5,3.8 126.2,3.8 126.2,6.7 136.2,6.7 136.2,9.9 126.2,9.9 
	126.2,12.7 137.5,12.7 137.5,16.1 121.5,16.1 "/>
<path id="Fill-21" d="M145.1,3.8v3.6h7c0.6,0,0.8-0.3,0.8-0.8v-2c0-0.5-0.2-0.8-0.8-0.8H145.1z M140.4,16.1V0.4h14
	c1.9,0,3.1,1.2,3.1,3.1V6c0,1.7-0.7,2.6-1.7,2.9c0.9,0.3,1.7,1.1,1.7,2.8v4.5l-4.7,0v-4.6c0-0.5-0.2-0.7-0.7-0.7h-7v5.4H140.4
	L140.4,16.1z"/>
</svg>
